<svg width="26" height="26" viewBox="0 0 26 26" fill="none" xmlns="http://www.w3.org/2000/svg">
<path d="M13 26C9.55219 26 6.24558 24.6304 3.80761 22.1924C1.36964 19.7544 0 16.4478 0 13C0 9.55219 1.36964 6.24558 3.80761 3.80761C6.24558 1.36964 9.55219 0 13 0C13.189 0 13.375 0.012 13.562 0.025L13.741 0.036C13.9384 0.0475021 14.128 0.117269 14.2857 0.236483C14.4435 0.355697 14.5624 0.519005 14.6273 0.705765C14.6923 0.892525 14.7004 1.09435 14.6507 1.28574C14.601 1.47712 14.4956 1.64947 14.348 1.781C13.6357 2.41393 13.0602 3.18578 12.657 4.04917C12.2538 4.91256 12.0313 5.84925 12.0032 6.80174C11.9751 7.75423 12.142 8.7024 12.4937 9.58805C12.8453 10.4737 13.3743 11.2781 14.0481 11.9519C14.7219 12.6257 15.5263 13.1547 16.412 13.5063C17.2976 13.858 18.2458 14.0249 19.1983 13.9968C20.1507 13.9687 21.0874 13.7462 21.9508 13.343C22.8142 12.9398 23.5861 12.3643 24.219 11.652C24.3505 11.5044 24.5229 11.399 24.7143 11.3493C24.9056 11.2996 25.1075 11.3077 25.2942 11.3727C25.481 11.4376 25.6443 11.5565 25.7635 11.7143C25.8827 11.872 25.9525 12.0616 25.964 12.259L25.975 12.438C25.988 12.625 26 12.811 26 13C25.996 16.4466 24.6251 19.7509 22.188 22.188C19.7509 24.6251 16.4466 25.996 13 26V26ZM11.455 2.108C9.43165 2.39526 7.52833 3.24051 5.95847 4.54895C4.38862 5.85738 3.2143 7.57728 2.5672 9.51577C1.92011 11.4543 1.82583 13.5347 2.29493 15.5238C2.76403 17.5128 3.77797 19.3319 5.22304 20.777C6.66811 22.222 8.48718 23.236 10.4762 23.7051C12.4653 24.1742 14.5457 24.0799 16.4842 23.4328C18.4227 22.7857 20.1426 21.6114 21.4511 20.0415C22.7595 18.4717 23.6047 16.5683 23.892 14.545C22.1646 15.669 20.1035 16.1654 18.0538 15.9509C16.0041 15.7364 14.0904 14.8241 12.6331 13.3669C11.1759 11.9096 10.2636 9.99588 10.0491 7.94619C9.83463 5.8965 10.331 3.83536 11.455 2.108V2.108Z" fill="black"/>
</svg>
