<svg width="26" height="26" viewBox="0 0 26 26" fill="none" xmlns="http://www.w3.org/2000/svg">
<path d="M13 6.2334C9.27788 6.2334 6.23999 9.2681 6.23999 12.9863C6.23999 16.7045 9.27788 19.7392 13 19.7392C16.7221 19.7392 19.76 16.7045 19.76 12.9863C19.76 9.2681 16.7221 6.2334 13 6.2334ZM13 18.0168C10.2358 18.0168 7.9642 15.7749 7.9642 12.9863C7.9642 10.1976 10.2358 7.9558 13 7.9558C15.7642 7.9558 18.0358 10.225 18.0358 12.9863C18.0358 15.7476 15.7642 18.0168 13 18.0168Z" fill="white"/>
<path d="M13 4.37434C13.4926 4.37434 13.8758 3.99159 13.8758 3.49947V0.874868C13.8758 0.382755 13.4926 0 13 0C12.5074 0 12.1242 0.382755 12.1242 0.874868V3.52681C12.1242 3.99159 12.5074 4.37434 13 4.37434Z" fill="white"/>
<path d="M5.66525 6.88951C5.82947 7.05355 6.04841 7.13557 6.26736 7.13557C6.48631 7.13557 6.70525 7.05355 6.86947 6.88951C7.19789 6.56144 7.19789 5.98731 6.86947 5.65923L5.00841 3.80013C4.67999 3.47206 4.10525 3.47206 3.77683 3.80013C3.44841 4.12821 3.44841 4.70234 3.77683 5.03042L5.66525 6.88951Z" fill="white"/>
<path d="M4.37895 12.9864C4.37895 12.4943 3.99579 12.1116 3.50316 12.1116H0.875789C0.383158 12.1116 0 12.4943 0 12.9864C0 13.4786 0.383158 13.8613 0.875789 13.8613H3.53053C3.99579 13.8613 4.37895 13.4786 4.37895 12.9864Z" fill="white"/>
<path d="M5.66526 19.0831L3.80421 20.9422C3.47579 21.2703 3.47579 21.8444 3.80421 22.1725C3.96842 22.3365 4.18737 22.4185 4.40631 22.4185C4.62526 22.4185 4.84421 22.3365 5.00842 22.1725L6.86947 20.3134C7.19789 19.9853 7.19789 19.4112 6.86947 19.0831C6.56842 18.7277 6.02105 18.7277 5.66526 19.0831Z" fill="white"/>
<path d="M13 21.5984C12.5074 21.5984 12.1242 21.9811 12.1242 22.4733V25.1252C12.1242 25.6173 12.5074 26.0001 13 26.0001C13.4926 26.0001 13.8758 25.6173 13.8758 25.1252V22.4733C13.8758 21.9811 13.4926 21.5984 13 21.5984Z" fill="white"/>
<path d="M20.3347 19.0831C20.0063 18.755 19.4316 18.755 19.1032 19.0831C18.7747 19.4112 18.7747 19.9853 19.1032 20.3134L20.9642 22.1725C21.1284 22.3365 21.3474 22.4185 21.5663 22.4185C21.7853 22.4185 22.0042 22.3365 22.1684 22.1725C22.4968 21.8444 22.4968 21.2703 22.1684 20.9422L20.3347 19.0831Z" fill="white"/>
<path d="M25.1242 12.1116H22.4695C21.9768 12.1116 21.5937 12.4943 21.5937 12.9864C21.5937 13.4786 21.9768 13.8613 22.4695 13.8613H25.1242C25.6168 13.8613 26 13.4786 26 12.9864C26 12.4943 25.6168 12.1116 25.1242 12.1116Z" fill="white"/>
<path d="M19.7053 7.16291C19.9242 7.16291 20.1432 7.08089 20.3074 6.91686L22.1684 5.05776C22.4968 4.72969 22.4968 4.15555 22.1684 3.82748C21.84 3.4994 21.2653 3.4994 20.9368 3.82748L19.0758 5.68657C18.7474 6.01465 18.7474 6.58878 19.0758 6.91686C19.2674 7.08089 19.4863 7.16291 19.7053 7.16291Z" fill="white"/>
</svg>
